<svg width="100" height="100" viewBox="0 0 100 100" fill="none" xmlns="http://www.w3.org/2000/svg">
<path d="M85.4115 11.3201H82.4875V83.156C82.4875 87.9283 78.6028 91.8129 73.8306 91.8129H44.2043H20.6454V94.4758C20.6454 97.5252 23.1203 100 26.1696 100H55.7853H85.4011C88.4504 100 90.9252 97.5252 90.9252 94.4758V16.8443C90.9253 13.795 88.4608 11.3201 85.4115 11.3201Z" fill="#39342E"/>
<path d="M44.2043 88.6799H73.82C76.8693 88.6799 79.3443 86.2051 79.3443 83.1559V11.32V5.52423C79.3443 2.47494 76.8693 0 73.82 0H44.2043H34.3568V1.82749C34.3775 2.01546 34.3881 2.21387 34.3881 2.41228V14.4528V17.5439C34.3881 21.8358 30.9002 25.3237 26.6082 25.3237H23.5171H11.4766C11.32 25.3237 11.1529 25.3133 10.9963 25.3028H9.07478V83.1559C9.07478 86.2051 11.5497 88.6799 14.599 88.6799H20.6558H44.2043ZM45.3217 69.9039H26.013C24.5719 69.9039 23.4023 68.7342 23.4023 67.2932C23.4023 65.852 24.5719 64.6825 26.013 64.6825H45.3321C46.7732 64.6825 47.9428 65.852 47.9428 67.2932C47.9428 68.7342 46.7628 69.9039 45.3217 69.9039ZM64.6408 56.5791H26.013C24.5719 56.5791 23.4023 55.4094 23.4023 53.9684C23.4023 52.5272 24.5719 51.3577 26.013 51.3577H64.6408C66.0819 51.3577 67.2515 52.5272 67.2515 53.9684C67.2515 55.4094 66.0819 56.5791 64.6408 56.5791ZM26.013 37.2076H64.6408C66.0819 37.2076 67.2515 38.3772 67.2515 39.8183C67.2515 41.2594 66.0819 42.429 64.6408 42.429H26.013C24.5719 42.429 23.4023 41.2594 23.4023 39.8183C23.4023 38.3772 24.5719 37.2076 26.013 37.2076Z" fill="#39342E"/>
<path d="M11.4766 22.1908H26.6082C26.6187 22.1908 26.6395 22.1908 26.65 22.1908C29.1771 22.17 31.2239 20.1232 31.2448 17.596C31.2448 17.5856 31.2448 17.5647 31.2448 17.5543V2.41223C31.2448 1.0129 30.0961 0.0834961 28.9057 0.0834961C28.3314 0.0834961 27.757 0.292352 27.2767 0.772719L9.82666 18.2226C8.36467 19.6846 9.39851 22.1908 11.4766 22.1908Z" fill="#39342E"/>
</svg>
