<svg width="100" height="100" viewBox="0 0 100 100" fill="none" xmlns="http://www.w3.org/2000/svg">
<path d="M33.4476 80.5199C33.4476 80.9334 32.9839 81.2642 32.3992 81.2642C31.7339 81.3263 31.2702 80.9954 31.2702 80.5199C31.2702 80.1063 31.7339 79.7755 32.3186 79.7755C32.9234 79.7135 33.4476 80.0443 33.4476 80.5199ZM27.1774 79.5894C27.0363 80.0029 27.4395 80.4785 28.0444 80.6026C28.5686 80.8093 29.1734 80.6026 29.2944 80.189C29.4153 79.7755 29.0323 79.2998 28.4274 79.1138C27.9032 78.969 27.3186 79.1758 27.1774 79.5894ZM36.0887 79.2378C35.504 79.3826 35.1008 79.7755 35.1613 80.2511C35.2218 80.6646 35.746 80.9334 36.3508 80.7887C36.9355 80.644 37.3387 80.2511 37.2782 79.8375C37.2177 79.4446 36.6734 79.1758 36.0887 79.2378ZM49.3548 0C21.3911 0 0 21.7739 0 50.4542C0 73.386 14.0726 93.0094 34.1734 99.9158C36.754 100.391 37.6613 98.7578 37.6613 97.4137C37.6613 96.1317 37.6008 89.0598 37.6008 84.7174C37.6008 84.7174 23.4879 87.8191 20.5242 78.5554C20.5242 78.5554 18.2258 72.5381 14.9194 70.9873C14.9194 70.9873 10.3024 67.7409 15.2419 67.803C15.2419 67.803 20.2621 68.2165 23.0242 73.1378C27.4395 81.1195 34.8387 78.8242 37.7218 77.4596C38.1855 74.1511 39.496 71.8558 40.9476 70.491C29.6774 69.209 18.3065 67.5342 18.3065 47.6419C18.3065 41.9555 19.8387 39.102 23.0645 35.4627C22.5403 34.1186 20.8266 28.5769 23.5887 21.4224C27.8024 20.0782 37.5 27.0054 37.5 27.0054C41.5323 25.8475 45.8669 25.2478 50.1613 25.2478C54.4556 25.2478 58.7903 25.8475 62.8226 27.0054C62.8226 27.0054 72.5202 20.0576 76.7339 21.4224C79.496 28.5976 77.7823 34.1186 77.2581 35.4627C80.4839 39.1226 82.4597 41.9762 82.4597 47.6419C82.4597 67.5962 70.5847 69.1884 59.3145 70.491C61.1694 72.1246 62.7419 75.2263 62.7419 80.0856C62.7419 87.0541 62.6814 95.6768 62.6814 97.3724C62.6814 98.7164 63.6089 100.35 66.1694 99.8744C86.3307 93.0094 100 73.386 100 50.4542C100 21.7739 77.3186 0 49.3548 0ZM19.5968 71.3182C19.3347 71.525 19.3952 72.0005 19.7379 72.3934C20.0605 72.7243 20.5242 72.869 20.7863 72.6002C21.0484 72.3934 20.9879 71.9179 20.6452 71.525C20.3226 71.1941 19.8589 71.0494 19.5968 71.3182ZM17.4194 69.6433C17.2782 69.9121 17.4798 70.243 17.8831 70.4497C18.2056 70.6565 18.6089 70.5945 18.75 70.305C18.8911 70.0361 18.6895 69.7053 18.2863 69.4985C17.8831 69.3744 17.5605 69.4365 17.4194 69.6433ZM23.9516 77.0046C23.629 77.2734 23.75 77.8937 24.2137 78.2866C24.6774 78.7622 25.2621 78.8242 25.5242 78.4934C25.7863 78.2246 25.6653 77.6043 25.2621 77.2114C24.8186 76.7358 24.2137 76.6738 23.9516 77.0046ZM21.6532 73.965C21.3306 74.1717 21.3306 74.7094 21.6532 75.1849C21.9758 75.6605 22.5202 75.8674 22.7823 75.6605C23.1048 75.3917 23.1048 74.8541 22.7823 74.3785C22.5 73.9029 21.9758 73.6962 21.6532 73.965Z" fill="#39342E"/>
</svg>
