<svg width="511" height="511" viewBox="0 0 511 511" fill="none" xmlns="http://www.w3.org/2000/svg">
<g clip-path="url(#clip0)">
<rect x="58" y="132" width="389" height="250" fill="#39342E"/>
<path d="M173.558 297.603L176.386 294.775L173.558 291.947L136.113 254.502L173.558 217.058L176.386 214.23L173.558 211.401L152.372 190.216L149.544 187.388L146.716 190.216L85.2577 251.674L82.4293 254.502L85.2576 257.331L146.716 318.793L149.544 321.622L152.373 318.793L173.558 297.603ZM232.504 335.304L236.081 337.093L237.87 333.515L308.392 192.467L310.181 188.889L306.604 187.1L279.804 173.701L276.227 171.912L274.438 175.49L203.916 316.538L202.127 320.116L205.704 321.905L232.504 335.304ZM359.936 318.789L362.764 321.617L365.592 318.789L427.05 257.331L429.879 254.503L427.05 251.674L365.592 190.212L362.764 187.384L359.936 190.212L338.746 211.401L335.918 214.23L338.747 217.058L376.195 254.502L338.747 291.947L335.918 294.775L338.747 297.604L359.936 318.789ZM38.9322 129.061L256.152 3.621L473.376 129.061V379.94L256.152 505.384L38.9322 379.94V129.061Z" fill="#FF9344" stroke="#39342E" stroke-width="8"/>
</g>
<defs>
<clipPath id="clip0">
<rect width="511" height="511" fill="white"/>
</clipPath>
</defs>
</svg>
