<svg width="100" height="100" viewBox="0 0 100 100" fill="none" xmlns="http://www.w3.org/2000/svg">
<path d="M0 7.13463C0 3.19654 3.31016 0 7.39063 0H92.6094C96.6914 0 100 3.19654 100 7.13463V92.4665C100 96.4058 96.6914 99.6 92.6094 99.6H7.39063C3.31055 99.6 0 96.4062 0 92.4677V7.13346V7.13463Z" fill="#39342E"/>
<path d="M30.3891 83.352V38.5118H15.425V83.352H30.3906H30.3891ZM22.9102 32.3907C28.1274 32.3907 31.3754 28.9474 31.3754 24.6444C31.2777 20.2433 28.1273 16.8962 23.0094 16.8962C17.8879 16.8962 14.543 20.2433 14.543 24.644C14.543 28.9471 17.7898 32.3903 22.8121 32.3903H22.909L22.9102 32.3907ZM38.6719 83.352H53.6348V58.3139C53.6348 56.9755 53.7324 55.6336 54.1278 54.6777C55.209 51.999 57.6711 49.2262 61.8059 49.2262C67.2192 49.2262 69.386 53.3378 69.386 59.3663V83.352H84.3485V57.642C84.3485 43.8696 76.9672 37.4605 67.1223 37.4605C59.0508 37.4605 55.5059 41.9538 53.5363 45.0142H53.636V38.5133H38.6727C38.868 42.7199 38.6715 83.3536 38.6715 83.3536L38.6719 83.352Z" fill="white"/>
</svg>
